<?xml version="1.0" encoding="utf-8"?>
<!-- Generator: Adobe Illustrator 19.2.0, SVG Export Plug-In . SVG Version: 6.00 Build 0)  -->
<svg version="1.1" id="Layer_1" xmlns="http://www.w3.org/2000/svg" xmlns:xlink="http://www.w3.org/1999/xlink" x="0px" y="0px"
	 viewBox="0 0 394.2 173.5" enable-background="new 0 0 394.2 173.5" xml:space="preserve">
<g>
	<path fill="#251F21" d="M137.6,101.4h-3.3l-2.6-20l-2.6,20h-3.3l4.4-28.9h1.6c0.6,0,1.1,0.2,1.2,0.5c0.2,0.3,0.3,0.7,0.4,1.1
		L137.6,101.4z"/>
	<path fill="#251F21" d="M160.5,72.5V98c0,1-0.4,1.8-1.1,2.5c-0.7,0.7-1.5,1.1-2.5,1.1h-2.3c-0.5,0-1-0.1-1.4-0.3s-0.8-0.5-1.2-0.8
		c-0.3-0.3-0.6-0.7-0.8-1.1c-0.2-0.4-0.3-0.9-0.3-1.4V73.3c0-0.2,0.1-0.4,0.3-0.6c0.2-0.2,0.4-0.2,0.6-0.2h2.1v25
		c0,0.4,0.1,0.8,0.4,1.1c0.3,0.3,0.7,0.5,1.1,0.5h0.5c0.5,0,0.8-0.1,1.1-0.4c0.3-0.3,0.5-0.7,0.5-1.1v-25H160.5z"/>
	<path fill="#251F21" d="M182.9,78.8c-0.1,0.1-0.4,0.2-0.9,0.4s-0.9,0.4-1.2,0.6v-3.3c0-0.5-0.2-0.8-0.5-1.1
		c-0.3-0.3-0.7-0.5-1.1-0.5c-0.4,0-0.8,0.2-1.1,0.5c-0.3,0.3-0.5,0.7-0.5,1.1v2.8c0,0.3,0.1,0.7,0.2,1.1c0.1,0.3,0.2,0.7,0.4,1.2
		s0.4,1,0.7,1.6l3.5,6.6c0.2,0.5,0.4,1.1,0.6,1.6c0.2,0.5,0.3,0.9,0.5,1.5c0.1,0.5,0.2,1,0.2,1.5V98c0,1-0.4,1.9-1.1,2.6
		c-0.7,0.7-1.6,1.1-2.6,1.1h-1.9c-1-0.1-1.8-0.4-2.5-1.1c-0.7-0.7-1-1.5-1-2.5v-3c0-0.5,0.1-0.8,0.3-1.1c0.2-0.2,0.4-0.4,0.6-0.5
		c0.1-0.1,0.4-0.2,0.9-0.4c0.5-0.2,0.9-0.4,1.3-0.6v5.1c0,0.4,0.2,0.8,0.5,1.1c0.3,0.3,0.7,0.4,1.1,0.4c0.5,0,0.8-0.1,1.1-0.4
		c0.3-0.3,0.4-0.7,0.4-1.1v-3.3c0-0.3-0.1-0.7-0.2-1.1c-0.1-0.3-0.2-0.7-0.4-1.2c-0.2-0.5-0.4-1-0.7-1.6l-3.6-6.7
		c-0.3-0.5-0.5-1.1-0.6-1.6c-0.2-0.5-0.3-0.9-0.4-1.5s-0.2-1-0.2-1.5v-3c0-0.5,0.1-1,0.3-1.4c0.2-0.5,0.5-0.9,0.8-1.2
		c0.3-0.4,0.7-0.6,1.2-0.8c0.4-0.2,0.9-0.3,1.4-0.3h1.9c0.5,0,0.9,0.1,1.4,0.3c0.4,0.2,0.8,0.5,1.1,0.8c0.3,0.4,0.6,0.8,0.8,1.2
		c0.2,0.5,0.3,0.9,0.3,1.4v1.1c0,0.5-0.1,0.8-0.2,1.1C183.3,78.6,183.1,78.7,182.9,78.8"/>
	<path fill="#251F21" d="M203.9,76.7c-0.1-0.4-0.2-0.7-0.5-1c-0.3-0.3-0.6-0.4-1-0.4h-1.6v10.2h1.6c0.4,0,0.7-0.1,1-0.4
		c0.3-0.3,0.5-0.6,0.5-1V76.7z M204.4,72.8c0.5,0.2,0.9,0.4,1.2,0.8c0.4,0.3,0.6,0.7,0.8,1.2c0.2,0.4,0.3,0.9,0.3,1.4v7.5
		c0,1.4-0.4,2.6-1.1,3.5c-0.7,0.9-1.8,1.4-3.2,1.4h-1.7v13h-2.1c-0.4,0-0.6-0.1-0.7-0.2s-0.1-0.3-0.1-0.4V72.5h5.2
		C203.5,72.5,204,72.6,204.4,72.8"/>
	<path fill="#251F21" d="M229.2,101.4h-3.3l-2.6-20l-2.6,20h-3.3l4.4-28.9h1.6c0.6,0,1.1,0.2,1.2,0.5c0.2,0.3,0.3,0.7,0.4,1.1
		L229.2,101.4z"/>
	<path fill="#251F21" d="M252.3,72.5c-0.2,0.4-0.4,0.8-0.6,1.3c-0.2,0.5-0.3,0.8-0.4,0.9c-0.1,0.2-0.2,0.4-0.5,0.6
		c-0.2,0.2-0.6,0.3-1.1,0.3h-2.3c-0.2,0-0.4,0.1-0.5,0.2c-0.1,0.1-0.2,0.3-0.2,0.5v25.3h-2.3c-0.3,0-0.6-0.1-0.7-0.2
		c-0.1-0.2-0.2-0.3-0.2-0.4V75.5h-4.1v-2.1c0-0.3,0.1-0.5,0.3-0.6c0.2-0.2,0.4-0.3,0.6-0.3H252.3z"/>
	<path fill="#251F21" d="M266.2,72.9c0.2,0.3,0.3,0.5,0.3,0.7v27.8h-2.1c-0.3,0-0.6-0.1-0.7-0.2c-0.1-0.1-0.2-0.3-0.2-0.4V72.5h1.8
		C265.8,72.5,266.1,72.6,266.2,72.9"/>
	<path fill="#251F21" d="M287.6,98.6c0.3-0.3,0.5-0.7,0.5-1.1V76.5c0-0.5-0.2-0.8-0.5-1.1c-0.3-0.3-0.7-0.5-1.1-0.5H286
		c-0.4,0-0.8,0.2-1.1,0.5c-0.3,0.3-0.4,0.7-0.4,1.1v20.9c0,0.5,0.1,0.8,0.4,1.1c0.3,0.3,0.7,0.5,1.1,0.5h0.4
		C287,99.1,287.3,98.9,287.6,98.6 M290,73.5c0.7,0.7,1.1,1.6,1.1,2.5v22c0,0.5-0.1,1-0.3,1.4c-0.2,0.4-0.4,0.8-0.8,1.1
		c-0.3,0.3-0.7,0.6-1.1,0.8c-0.4,0.2-0.9,0.3-1.4,0.3h-2.3c-1,0-1.9-0.4-2.6-1.1c-0.7-0.7-1.1-1.6-1.1-2.6V76c0-1,0.4-1.9,1.1-2.6
		c0.7-0.7,1.6-1.1,2.6-1.1h2.3C288.5,72.4,289.3,72.8,290,73.5"/>
	<path fill="#251F21" d="M315.6,72.5V98c0,1-0.4,1.8-1.1,2.5c-0.7,0.7-1.5,1.1-2.5,1.1h-2.3c-0.5,0-1-0.1-1.4-0.3
		c-0.5-0.2-0.8-0.5-1.2-0.8c-0.3-0.3-0.6-0.7-0.8-1.1c-0.2-0.4-0.3-0.9-0.3-1.4V73.3c0-0.2,0.1-0.4,0.3-0.6c0.2-0.2,0.4-0.2,0.6-0.2
		h2.1v25c0,0.4,0.1,0.8,0.4,1.1c0.3,0.3,0.7,0.5,1.1,0.5h0.5c0.5,0,0.8-0.1,1.1-0.4c0.3-0.3,0.5-0.7,0.5-1.1v-25H315.6z"/>
	<path fill="#251F21" d="M338,78.8c-0.1,0.1-0.4,0.2-0.9,0.4c-0.5,0.2-0.9,0.4-1.2,0.6v-3.3c0-0.5-0.2-0.8-0.5-1.1
		c-0.3-0.3-0.7-0.5-1.1-0.5c-0.4,0-0.8,0.2-1.1,0.5c-0.3,0.3-0.5,0.7-0.5,1.1v2.8c0,0.3,0.1,0.7,0.2,1.1c0.1,0.3,0.2,0.7,0.4,1.2
		s0.4,1,0.7,1.6l3.5,6.6c0.2,0.5,0.4,1.1,0.6,1.6c0.2,0.5,0.3,0.9,0.5,1.5c0.1,0.5,0.2,1,0.2,1.5V98c0,1-0.4,1.9-1.1,2.6
		c-0.7,0.7-1.6,1.1-2.6,1.1h-1.9c-1-0.1-1.8-0.4-2.5-1.1c-0.7-0.7-1-1.5-1-2.5v-3c0-0.5,0.1-0.8,0.3-1.1c0.2-0.2,0.4-0.4,0.6-0.5
		c0.1-0.1,0.4-0.2,0.9-0.4c0.5-0.2,0.9-0.4,1.3-0.6v5.1c0,0.4,0.2,0.8,0.5,1.1c0.3,0.3,0.7,0.4,1.1,0.4c0.5,0,0.8-0.1,1.1-0.4
		c0.3-0.3,0.4-0.7,0.4-1.1v-3.3c0-0.3-0.1-0.7-0.2-1.1c-0.1-0.3-0.2-0.7-0.4-1.2c-0.2-0.5-0.4-1-0.7-1.6l-3.6-6.7
		c-0.3-0.5-0.5-1.1-0.6-1.6c-0.2-0.5-0.3-0.9-0.4-1.5c-0.1-0.5-0.2-1-0.2-1.5v-3c0-0.5,0.1-1,0.3-1.4c0.2-0.5,0.5-0.9,0.8-1.2
		c0.3-0.4,0.7-0.6,1.2-0.8c0.4-0.2,0.9-0.3,1.4-0.3h1.9c0.5,0,0.9,0.1,1.4,0.3c0.4,0.2,0.8,0.5,1.1,0.8c0.3,0.4,0.6,0.8,0.8,1.2
		c0.2,0.5,0.3,0.9,0.3,1.4v1.1c0,0.5-0.1,0.8-0.3,1.1C338.4,78.6,338.2,78.7,338,78.8"/>
	<path fill="#FFFFFF" d="M82.3,56.7"/>
	<polygon fill="#919496" points="82.3,56.7 55.3,71.7 64.3,76.7 82.3,66.7 100.3,76.7 109.2,71.7 	"/>
	<polygon fill="#919496" points="82.3,86.7 64.3,96.8 82.3,106.8 100.3,96.8 	"/>
	<path fill="#251F21" d="M100.3,76.7L100.3,76.7l-18-10l-18,10l0,0v0l-9-5v30.1l0,0l0,0l26.9,15l26.9-15l0,0V71.7L100.3,76.7z
		 M82.3,106.8l-18-10v0l0,0l18-10l18,10v0l0,0L82.3,106.8z"/>
</g>
</svg>
